<?xml version="1.0" encoding="UTF-8" standalone="no"?>
<!DOCTYPE svg PUBLIC "-//W3C//DTD SVG 1.1//EN" "http://www.w3.org/Graphics/SVG/1.1/DTD/svg11.dtd">
<svg width="100%" height="100%" viewBox="0 0 250 250" version="1.1" xmlns="http://www.w3.org/2000/svg" xmlns:xlink="http://www.w3.org/1999/xlink" xml:space="preserve" xmlns:serif="http://www.serif.com/" style="fill-rule:evenodd;clip-rule:evenodd;stroke-linecap:round;stroke-linejoin:round;stroke-miterlimit:1.5;">
    <g transform="matrix(0.547482,0,0,0.547482,-9.1331,-7.6916)">
        <path d="M182.54,374.843C169.993,356.998 159.346,339.606 149.915,332.696C112.137,305.02 90.055,244.197 90.055,204.026C90.055,200.239 90.191,196.484 90.458,192.765C90.053,192.746 87.072,193.178 78.596,190.525C46.34,180.429 16.682,135.848 16.682,101.457C16.682,62.191 41.523,21.673 78.361,21.517C119.982,21.341 130.144,47.263 144.86,66.766C149.94,73.196 159.015,74.832 166.02,70.58C177.384,63.818 189.682,58.463 202.672,54.761C214.34,50.883 227.974,48.839 243.866,48.839C244.095,48.839 244.325,48.839 244.554,48.841C244.783,48.839 245.012,48.839 245.242,48.839C261.133,48.839 274.768,50.883 286.435,54.761C299.64,58.524 312.128,63.995 323.646,70.918C330.63,75.199 339.709,73.606 344.819,67.204C359.707,47.649 369.709,21.34 411.639,21.517C448.477,21.673 473.318,62.191 473.318,101.457C473.318,136.347 443.283,183.742 410.003,190.959C400.142,193.097 398.676,193.099 398.57,192.94C398.577,192.909 398.584,192.883 398.593,192.862C398.626,192.825 398.673,192.796 398.652,192.797C398.628,192.799 398.609,192.821 398.593,192.862C398.57,192.887 398.554,192.916 398.57,192.94C398.344,193.989 399.053,200.552 399.053,204.026C399.053,244.197 376.971,305.02 339.193,332.696C329.779,339.593 319.493,356.936 307.367,374.749L383.965,396.056L387.401,398.261L388.211,399.84L388.223,401.505L387.398,402.93L385.917,403.906L381.839,404.135L300.855,384.052C299.459,385.98 298.039,387.892 296.595,389.777L374.383,429.548L377.309,432.396L377.786,434.105L377.463,435.74L376.37,436.972L374.722,437.631L370.682,437.038L289.627,398.363C288.492,399.676 287.342,400.962 286.177,402.215L347.974,455.281L350.151,458.737L350.216,460.509L349.521,462.022L348.171,462.963L346.416,463.218L342.625,461.699L278.459,409.788C268.681,418.439 257.86,424.366 245.741,424.924C245.574,424.952 245.309,424.917 245.242,424.905C233.048,424.344 222.028,418.35 211.997,409.615L147.625,461.693L143.826,463.218L142.071,462.963L140.708,462.007L140.026,460.509L140.091,458.737L142.268,455.281L204.193,402.105C203.019,400.871 201.859,399.607 200.713,398.316L119.568,437.034L115.519,437.631L113.872,436.972L112.769,435.722L112.456,434.105L112.933,432.396L115.858,429.548L193.604,389.799C192.12,387.92 190.661,386.014 189.226,384.092L108.412,404.133L104.325,403.906L102.844,402.93L102.014,401.486L102.031,399.84L102.841,398.261L106.277,396.056L182.54,374.843ZM145.11,219.823C144.432,218.353 142.935,217.436 141.317,217.5C139.699,217.564 138.279,218.596 137.719,220.115C132.671,233.817 124.871,259.506 132.064,270.889C140.273,283.878 149.414,289.157 173.973,292.687C184.856,294.252 196.653,294.557 205.462,294.491C207.247,294.479 208.81,293.291 209.299,291.574C209.788,289.857 209.085,288.023 207.573,287.073C196.879,280.182 180.702,268.547 167.432,253.927C156.834,242.252 149.296,228.53 145.11,219.823ZM344.373,219.823C345.051,218.353 346.549,217.436 348.167,217.5C349.785,217.564 351.205,218.596 351.765,220.115C356.812,233.817 364.613,259.506 357.419,270.889C349.211,283.878 340.069,289.157 315.511,292.687C304.627,294.252 292.83,294.557 284.021,294.491C282.236,294.479 280.673,293.291 280.185,291.574C279.696,289.857 280.399,288.023 281.91,287.073C292.604,280.182 308.781,268.547 322.052,253.927C332.649,242.252 340.188,228.53 344.373,219.823Z" style="fill:white;stroke:white;stroke-width:2.03px;"/>
    </g>
</svg>
